<?xml version="1.0" encoding="UTF-8" standalone="no"?>
<svg width="117px" height="91px" viewBox="0 0 117 91" version="1.1" xmlns="http://www.w3.org/2000/svg" xmlns:xlink="http://www.w3.org/1999/xlink" xmlns:sketch="http://www.bohemiancoding.com/sketch/ns">
    <!-- Generator: Sketch 3.2.2 (9983) - http://www.bohemiancoding.com/sketch -->
    <title>noacuerdoizq</title>
    <desc>Created with Sketch.</desc>
    <defs></defs>
    <g id="Page-1" stroke="none" stroke-width="1" fill="none" fill-rule="evenodd" sketch:type="MSPage">
        <g id="noacuerdoizq" sketch:type="MSLayerGroup" fill="#EF4036">
            <g id="Group" sketch:type="MSShapeGroup">
                <path d="M25.692,7.885 L0,7.885 L0,88.122 L25.692,88.122 L25.692,7.885 L25.692,7.885 Z M12.263,75.279 C14.521,75.279 16.349,77.105 16.349,79.365 C16.349,81.62 14.521,83.451 12.263,83.451 C10.003,83.451 8.177,81.621 8.177,79.365 C8.176,77.105 10.003,75.274 12.263,75.279 L12.263,75.279 Z" id="Shape"></path>
                <g id="Your_Icon_5_" transform="translate(30.000000, 0.000000)">
                    <g id="Group">
                        <path d="M59.443,36.974 L73.427,47.588 C77.091,50.332 82.295,49.606 85.053,45.962 C87.811,42.32 87.077,37.141 83.416,34.399 L66.924,21.883 C66.74,22.466 66.51,23.035 66.23,23.578 L59.443,36.974 L59.443,36.974 Z" id="Shape"></path>
                        <path d="M49.192,50.012 C48.131,50.35 47.044,50.527 45.961,50.54 L66.839,66.271 C70.502,69.016 75.707,68.284 78.465,64.643 C81.223,60.998 80.489,55.821 76.826,53.079 L58.339,39.15 L55.565,44.627 C54.233,47.211 51.971,49.123 49.192,50.012 L49.192,50.012 Z" id="Shape"></path>
                        <path d="M27.55,49.967 C26.425,51.456 25.883,53.197 25.883,54.927 C25.883,57.433 27.023,59.906 29.191,61.529 L51.727,78.648 C55.39,81.392 60.593,80.665 63.354,77.022 C64.48,75.534 65.025,73.791 65.025,72.063 C65.025,69.555 63.883,67.081 61.715,65.459 L39.18,48.339 C35.518,45.595 30.31,46.324 27.55,49.967 L27.55,49.967 Z" id="Shape"></path>
                        <path d="M45.923,87.543 C47.051,86.056 47.594,84.313 47.594,82.583 C47.594,80.078 46.452,77.603 44.284,75.98 L31.341,66.302 C27.682,63.56 22.474,64.289 19.714,67.931 C18.588,69.42 18.045,71.162 18.045,72.89 C18.045,75.395 19.185,77.871 21.355,79.492 L34.294,89.17 C37.961,91.917 43.166,91.186 45.923,87.543 L45.923,87.543 Z" id="Shape"></path>
                        <path d="M61.52,8.772 C59.206,7.666 44.81,0.615 38.66,0.029 C36.987,-0.13 33.575,0.394 32.006,0.997 C24.208,3.992 6.061,17.675 0.152,22.212 L0.152,75.057 C2.722,76.654 5.628,78.238 8.94,79.722 C13.034,81.557 17.758,82.127 21.36,82.247 L20.024,81.255 C17.36,79.261 15.834,76.213 15.834,72.895 C15.834,70.61 16.565,68.435 17.949,66.608 C19.639,64.375 22.103,62.934 24.884,62.54 C25.033,62.519 25.18,62.505 25.325,62.49 C24.708,60.352 23.934,58.074 22.947,55.674 C21.829,52.945 20.591,50.571 19.326,48.514 L19.412,48.285 C19.412,48.285 25.515,48.285 34.862,35.229 C38.211,30.554 42.719,19.314 42.719,19.314 L45.774,20.558 L38.094,35.717 C37.442,36.983 37.134,38.33 37.134,39.665 C37.134,42.81 38.863,45.843 41.874,47.382 C46.155,49.562 51.403,47.881 53.598,43.623 L65.3,20.435 C65.955,19.158 66.27,17.786 66.27,16.433 C66.27,13.273 64.559,10.223 61.52,8.772 L61.52,8.772 Z" id="Shape"></path>
                    </g>
                </g>
            </g>
        </g>
    </g>
</svg>