<?xml version="1.0" encoding="UTF-8" standalone="no"?>
<svg width="117px" height="91px" viewBox="0 0 117 91" version="1.1" xmlns="http://www.w3.org/2000/svg" xmlns:xlink="http://www.w3.org/1999/xlink" xmlns:sketch="http://www.bohemiancoding.com/sketch/ns">
    <!-- Generator: Sketch 3.2.2 (9983) - http://www.bohemiancoding.com/sketch -->
    <title>noacuerdoder</title>
    <desc>Created with Sketch.</desc>
    <defs></defs>
    <g id="Page-1" stroke="none" stroke-width="1" fill="none" fill-rule="evenodd" sketch:type="MSPage">
        <g id="noacuerdoder" sketch:type="MSLayerGroup" transform="translate(-1.000000, 0.000000)" fill="#EF4036">
            <g id="Group" sketch:type="MSShapeGroup">
                <path d="M92.032,88.123 L117.724,88.123 L117.724,7.885 L92.032,7.885 L92.032,88.123 L92.032,88.123 Z M109.547,79.365 C109.547,81.622 107.72,83.451 105.461,83.451 C103.203,83.451 101.375,81.62 101.375,79.365 C101.375,77.105 103.203,75.279 105.461,75.279 C107.721,75.274 109.547,77.105 109.547,79.365 L109.547,79.365 Z" id="Shape"></path>
                <g id="Your_Icon_5_">
                    <g id="Group">
                        <path d="M28.281,36.974 L14.296,47.588 C10.632,50.332 5.428,49.606 2.67,45.962 C-0.088,42.32 0.646,37.141 4.307,34.399 L20.799,21.883 C20.983,22.466 21.213,23.035 21.493,23.578 L28.281,36.974 L28.281,36.974 Z" id="Shape"></path>
                        <path d="M38.532,50.012 C39.593,50.35 40.68,50.527 41.763,50.54 L20.885,66.271 C17.222,69.016 12.017,68.284 9.259,64.643 C6.501,60.998 7.235,55.821 10.898,53.079 L29.384,39.15 L32.158,44.627 C33.491,47.211 35.752,49.123 38.532,50.012 L38.532,50.012 Z" id="Shape"></path>
                        <path d="M60.174,49.967 C61.299,51.456 61.841,53.197 61.841,54.927 C61.841,57.433 60.701,59.906 58.533,61.529 L35.998,78.648 C32.335,81.392 27.132,80.665 24.371,77.022 C23.245,75.534 22.7,73.791 22.7,72.063 C22.7,69.555 23.842,67.081 26.01,65.459 L48.545,48.339 C52.206,45.595 57.414,46.324 60.174,49.967 L60.174,49.967 Z" id="Shape"></path>
                        <path d="M41.8,87.543 C40.672,86.056 40.129,84.313 40.129,82.583 C40.129,80.078 41.271,77.603 43.439,75.98 L56.382,66.302 C60.041,63.56 65.249,64.289 68.009,67.931 C69.135,69.42 69.678,71.162 69.678,72.89 C69.678,75.395 68.538,77.871 66.368,79.492 L53.429,89.17 C49.762,91.917 44.558,91.186 41.8,87.543 L41.8,87.543 Z" id="Shape"></path>
                        <path d="M26.204,8.772 C28.518,7.666 42.914,0.615 49.064,0.029 C50.737,-0.13 54.149,0.394 55.718,0.997 C63.516,3.992 81.663,17.675 87.572,22.212 L87.572,75.057 C85.002,76.654 82.096,78.238 78.784,79.722 C74.69,81.557 69.966,82.127 66.364,82.247 L67.7,81.255 C70.364,79.261 71.89,76.213 71.89,72.895 C71.89,70.61 71.159,68.435 69.775,66.608 C68.085,64.375 65.621,62.934 62.84,62.54 C62.691,62.519 62.544,62.505 62.399,62.49 C63.016,60.352 63.79,58.074 64.777,55.674 C65.895,52.945 67.133,50.571 68.398,48.514 L68.312,48.285 C68.312,48.285 62.209,48.285 52.862,35.229 C49.513,30.554 45.005,19.314 45.005,19.314 L41.95,20.558 L49.63,35.717 C50.282,36.983 50.59,38.33 50.59,39.665 C50.59,42.81 48.861,45.843 45.85,47.382 C41.569,49.562 36.321,47.881 34.126,43.623 L22.423,20.435 C21.768,19.158 21.453,17.786 21.453,16.433 C21.454,13.273 23.165,10.223 26.204,8.772 L26.204,8.772 Z" id="Shape"></path>
                    </g>
                </g>
            </g>
        </g>
    </g>
</svg>